<svg width="293" height="119" viewBox="0 0 293 119" fill="none" xmlns="http://www.w3.org/2000/svg">
<path d="M161.089 20.1253V26.7093C160.203 26.7093 159.585 26.8513 159.235 27.1353C158.897 27.4074 158.727 27.8629 158.727 28.5017V36.7007C158.727 37.1385 158.774 37.5585 158.867 37.9607C158.961 38.363 159.118 38.7238 159.34 39.0433C159.573 39.3509 159.876 39.5993 160.249 39.7886C160.634 39.9661 161.118 40.0548 161.701 40.0548C162.821 40.0548 163.637 39.7591 164.15 39.1675C164.663 38.5641 164.92 37.7537 164.92 36.7362V28.5727C164.92 27.8392 164.704 27.3482 164.273 27.0998C163.841 26.8395 163.246 26.7093 162.488 26.7093V20.1253H174.016V26.7093C173.235 26.7093 172.634 26.8276 172.214 27.0643C171.794 27.2891 171.584 27.7682 171.584 28.5017V36.9669C171.584 38.0554 171.444 39.1912 171.165 40.3743C170.896 41.5455 170.36 42.6222 169.555 43.6042C168.762 44.5743 167.625 45.3847 166.144 46.0355C164.663 46.6743 162.704 46.9938 160.267 46.9938C158.494 46.9938 156.967 46.8281 155.684 46.4969C154.413 46.1774 153.334 45.7515 152.448 45.2191C151.561 44.6867 150.856 44.0833 150.331 43.4089C149.806 42.7227 149.398 42.0188 149.107 41.2971C148.827 40.5636 148.64 39.8537 148.547 39.1675C148.454 38.4695 148.407 37.8306 148.407 37.2509V28.7147C148.407 27.9339 148.185 27.4074 147.742 27.1353C147.299 26.8513 146.564 26.7093 145.538 26.7093V20.1253H161.089Z" fill="#D9D9D9"/>
<path d="M192.296 34.926C192.296 34.4646 192.237 34.0979 192.121 33.8257C192.016 33.5418 191.876 33.3288 191.701 33.1869C191.538 33.0331 191.351 32.9325 191.141 32.8852C190.931 32.8378 190.727 32.8142 190.529 32.8142C189.771 32.8142 189.205 33.039 188.832 33.4886C188.459 33.9381 188.272 34.577 188.272 35.4052V37.943C188.272 38.57 188.377 39.0196 188.587 39.2917C188.809 39.552 189.229 39.6821 189.847 39.6821H190.791V46.2662H176.167V39.6821H177.2C177.678 39.6821 178.039 39.5283 178.284 39.2207C178.541 38.9013 178.669 38.5227 178.669 38.0849V34.7131C178.669 34.157 178.506 33.7843 178.179 33.595C177.864 33.3939 177.503 33.2933 177.095 33.2933H176.167V26.7093H186.558L186.191 31.5897H186.488C186.745 29.7677 187.532 28.3657 188.85 27.3837C190.167 26.4017 191.957 25.9107 194.22 25.9107C195.817 25.9107 197.118 26.1414 198.121 26.6029C199.123 27.0643 199.899 27.6499 200.447 28.3598C201.007 29.0578 201.386 29.8209 201.584 30.6491C201.782 31.4654 201.881 32.2345 201.881 32.9562V37.943C201.881 38.57 201.986 39.0196 202.196 39.2917C202.418 39.552 202.838 39.6821 203.456 39.6821H204.4V46.2662H192.296V34.926Z" fill="#D9D9D9"/>
<path d="M218.394 26.7093V37.7655C218.394 38.5582 218.587 39.0788 218.972 39.3272C219.356 39.5638 219.846 39.6821 220.441 39.6821H220.913V46.2662H206.185V39.6821H206.867C207.485 39.6821 207.94 39.4869 208.231 39.0965C208.534 38.6943 208.686 38.2624 208.686 37.801V35.2987C208.686 34.6125 208.47 34.1097 208.039 33.7903C207.619 33.459 207.129 33.2933 206.569 33.2933H206.185V26.7093H218.394ZM208.406 22.3437C208.406 21.3262 208.785 20.4566 209.543 19.7349C210.313 19.0132 211.403 18.6523 212.814 18.6523C214.249 18.6523 215.351 19.0132 216.12 19.7349C216.902 20.4566 217.292 21.3262 217.292 22.3437C217.292 23.3848 216.902 24.2662 216.12 24.9879C215.351 25.6978 214.249 26.0527 212.814 26.0527C211.403 26.0527 210.313 25.6978 209.543 24.9879C208.785 24.2662 208.406 23.3848 208.406 22.3437Z" fill="#D9D9D9"/>
<path d="M234.225 20.1253V26.7093H239.455V33.2933H234.225V38.7416C234.225 39.5224 234.33 40.1613 234.54 40.6582C234.762 41.1551 235.211 41.4036 235.887 41.4036C236.26 41.4036 236.557 41.3326 236.779 41.1906C237.012 41.0368 237.193 40.8416 237.321 40.605C237.461 40.3565 237.549 40.0785 237.584 39.7709C237.619 39.4514 237.636 39.1083 237.636 38.7416V36.0973H239.648V38.9545C239.648 40.1022 239.525 41.1729 239.28 42.1667C239.047 43.1605 238.639 44.0183 238.056 44.74C237.485 45.4616 236.703 46.0355 235.712 46.4614C234.721 46.8873 233.473 47.1003 231.969 47.1003C230.301 47.1003 228.972 46.8932 227.98 46.4791C226.989 46.065 226.237 45.4971 225.724 44.7754C225.211 44.0537 224.872 43.196 224.709 42.2022C224.558 41.2084 224.482 40.1258 224.482 38.9545V33.2933H221.735V27.4369C222.61 27.4369 223.421 27.2476 224.167 26.8691C224.925 26.4786 225.572 25.9462 226.109 25.2719C226.657 24.5856 227.077 23.8048 227.368 22.9293C227.671 22.0538 227.823 21.1191 227.823 20.1253H234.225Z" fill="#D9D9D9"/>
<path d="M250.721 37.588C250.767 39.3509 251.094 40.5695 251.7 41.2439C252.318 41.9064 253.199 42.2377 254.342 42.2377C254.726 42.2377 255.1 42.1844 255.461 42.0779C255.834 41.9596 256.178 41.7763 256.493 41.5278C256.808 41.2675 257.076 40.9303 257.298 40.5162C257.531 40.0903 257.683 39.5579 257.753 38.919H264.12C263.887 40.4453 263.455 41.723 262.825 42.7523C262.207 43.7816 261.408 44.6157 260.429 45.2546C259.449 45.8817 258.306 46.3312 257 46.6033C255.706 46.8873 254.26 47.0293 252.662 47.0293C251.018 47.0293 249.473 46.8163 248.027 46.3904C246.581 45.9645 245.31 45.3197 244.213 44.456C243.129 43.5805 242.278 42.4861 241.659 41.1729C241.041 39.8478 240.732 38.2742 240.732 36.4523C240.732 34.7131 241.024 33.1869 241.607 31.8736C242.19 30.5604 243.006 29.466 244.056 28.5905C245.117 27.7031 246.365 27.0347 247.799 26.5851C249.245 26.1355 250.831 25.9107 252.557 25.9107C254.68 25.9107 256.505 26.1947 258.032 26.7626C259.56 27.3305 260.808 28.1231 261.776 29.1406C262.744 30.1581 263.455 31.3826 263.91 32.8142C264.365 34.2458 264.58 35.837 264.557 37.588H250.721ZM253.309 30.7023C252.493 30.7023 251.887 30.9981 251.49 31.5897C251.105 32.1694 250.849 33.1336 250.721 34.4824H255.846C255.776 33.3229 255.531 32.406 255.111 31.7316C254.691 31.0454 254.091 30.7023 253.309 30.7023Z" fill="#D9D9D9"/>
<path d="M290.499 20.1253V38.2269C290.499 38.712 290.627 39.0788 290.883 39.3272C291.152 39.5638 291.525 39.6821 292.003 39.6821H293V46.2662H281.245V43.0363H280.965C280.779 43.545 280.504 44.0301 280.143 44.4915C279.781 44.9529 279.338 45.3611 278.814 45.716C278.289 46.0591 277.665 46.3312 276.942 46.5324C276.23 46.7453 275.42 46.8518 274.51 46.8518C271.653 46.8518 269.49 45.9763 268.021 44.2253C266.551 42.4625 265.817 39.8833 265.817 36.4877C265.817 33.0922 266.604 30.5722 268.178 28.9277C269.752 27.2831 271.916 26.4609 274.668 26.4609C275.402 26.4609 276.061 26.52 276.644 26.6383C277.228 26.7567 277.758 26.9105 278.236 27.0998C278.714 27.2772 279.169 27.4843 279.601 27.7209C280.032 27.9457 280.464 28.1646 280.895 28.3775V27.7386C280.895 27.0998 280.784 26.6502 280.563 26.3899C280.353 26.1178 279.939 25.9817 279.321 25.9817H278.394V20.1253H290.499ZM275.77 36.6652C275.77 37.3041 275.805 37.9075 275.875 38.4754C275.945 39.0433 276.073 39.5402 276.26 39.9661C276.458 40.392 276.714 40.7233 277.029 40.9599C277.356 41.1965 277.781 41.3148 278.306 41.3148C278.831 41.3148 279.263 41.2024 279.601 40.9777C279.939 40.7529 280.201 40.4393 280.388 40.0371C280.586 39.6348 280.72 39.1557 280.79 38.5996C280.86 38.0435 280.895 37.452 280.895 36.8249V32.8142C280.604 32.5302 280.213 32.2936 279.723 32.1043C279.233 31.9032 278.761 31.8026 278.306 31.8026C277.781 31.8026 277.356 31.9387 277.029 32.2108C276.714 32.4711 276.458 32.826 276.26 33.2756C276.073 33.7252 275.945 34.2458 275.875 34.8373C275.805 35.4289 275.77 36.0382 275.77 36.6652Z" fill="#D9D9D9"/>
<path d="M158.797 64.8469C159.579 64.8469 160.308 64.912 160.984 65.0421C161.672 65.1723 162.296 65.3438 162.856 65.5568C163.415 65.7579 163.899 65.9768 164.308 66.2134C164.716 66.4382 165.048 66.6453 165.305 66.8346V65.5568H171.077V75.2287H164.955C164.955 74.436 164.856 73.7735 164.657 73.2411C164.471 72.7087 164.214 72.2769 163.888 71.9456C163.573 71.6143 163.2 71.3777 162.768 71.2357C162.337 71.0938 161.87 71.0228 161.369 71.0228C160.681 71.0228 160.092 71.1588 159.602 71.4309C159.112 71.6912 158.71 72.1171 158.395 72.7087C158.092 73.3003 157.859 74.087 157.695 75.069C157.544 76.051 157.468 77.2459 157.468 78.6538C157.468 80.0854 157.55 81.2863 157.713 82.2564C157.888 83.2147 158.144 83.9956 158.483 84.599C158.832 85.1905 159.276 85.6224 159.812 85.8945C160.348 86.1548 160.99 86.2849 161.736 86.2849C162.238 86.2849 162.722 86.1903 163.188 86.001C163.654 85.7998 164.063 85.4981 164.413 85.0959C164.774 84.6936 165.054 84.1908 165.252 83.5874C165.462 82.984 165.567 82.2564 165.567 81.4046H171.654C171.654 82.9071 171.421 84.3269 170.955 85.6638C170.488 87.0007 169.759 88.172 168.768 89.1776C167.777 90.1833 166.517 90.9819 164.99 91.5734C163.462 92.165 161.649 92.4607 159.55 92.4607C157.66 92.4607 155.87 92.2005 154.179 91.6799C152.5 91.1593 151.031 90.343 149.771 89.2309C148.523 88.1187 147.532 86.6931 146.798 84.9539C146.075 83.2029 145.713 81.1029 145.713 78.6538C145.713 76.2048 146.08 74.1107 146.815 72.3715C147.561 70.6205 148.541 69.1889 149.754 68.0768C150.978 66.9647 152.372 66.1483 153.934 65.6278C155.497 65.1072 157.118 64.8469 158.797 64.8469Z" fill="#D9D9D9"/>
<path d="M186.733 72.1408V83.197C186.733 83.9897 186.925 84.5102 187.31 84.7587C187.695 84.9953 188.185 85.1136 188.78 85.1136H189.252V91.6976H174.523V85.1136H175.205C175.823 85.1136 176.278 84.9184 176.57 84.528C176.873 84.1257 177.025 83.6939 177.025 83.2325V80.7302C177.025 80.044 176.809 79.5412 176.377 79.2217C175.958 78.8905 175.468 78.7248 174.908 78.7248H174.523V72.1408H186.733ZM176.745 67.7751C176.745 66.7577 177.124 65.8881 177.882 65.1664C178.651 64.4447 179.742 64.0838 181.153 64.0838C182.587 64.0838 183.689 64.4447 184.459 65.1664C185.24 65.8881 185.631 66.7577 185.631 67.7751C185.631 68.8163 185.24 69.6977 184.459 70.4194C183.689 71.1292 182.587 71.4842 181.153 71.4842C179.742 71.4842 178.651 71.1292 177.882 70.4194C177.124 69.6977 176.745 68.8163 176.745 67.7751Z" fill="#D9D9D9"/>
<path d="M202.564 65.5568V72.1408H207.794V78.7248H202.564V84.173C202.564 84.9539 202.669 85.5928 202.879 86.0897C203.1 86.5866 203.549 86.8351 204.225 86.8351C204.599 86.8351 204.896 86.7641 205.118 86.6221C205.351 86.4683 205.532 86.2731 205.66 86.0364C205.8 85.788 205.887 85.51 205.922 85.2024C205.957 84.8829 205.975 84.5398 205.975 84.173V81.5288H207.986V84.386C207.986 85.5336 207.864 86.6043 207.619 87.5982C207.386 88.592 206.978 89.4497 206.395 90.1714C205.823 90.8931 205.042 91.4669 204.051 91.8929C203.059 92.3188 201.811 92.5317 200.307 92.5317C198.64 92.5317 197.31 92.3247 196.319 91.9106C195.328 91.4965 194.575 90.9286 194.062 90.2069C193.549 89.4852 193.211 88.6275 193.048 87.6336C192.896 86.6398 192.82 85.5573 192.82 84.386V78.7248H190.074V72.8684C190.949 72.8684 191.759 72.6791 192.505 72.3005C193.263 71.9101 193.911 71.3777 194.447 70.7033C194.995 70.0171 195.415 69.2363 195.707 68.3608C196.01 67.4853 196.161 66.5506 196.161 65.5568H202.564Z" fill="#D9D9D9"/>
<path d="M225.181 93.1529C224.785 94.0284 224.377 94.963 223.957 95.9568C223.537 96.9507 222.983 97.8676 222.295 98.7076C221.619 99.5594 220.744 100.263 219.671 100.819C218.598 101.375 217.199 101.654 215.473 101.654C214.26 101.654 213.199 101.494 212.29 101.174C211.38 100.867 210.628 100.447 210.033 99.9143C209.438 99.3819 208.995 98.7667 208.704 98.0687C208.424 97.3825 208.284 96.6785 208.284 95.9568C208.284 94.5253 208.715 93.3954 209.578 92.5672C210.453 91.7509 211.537 91.3427 212.832 91.3427C213.59 91.3427 214.225 91.4551 214.738 91.6799C215.252 91.9047 215.671 92.1945 215.998 92.5495C216.324 92.9044 216.552 93.2948 216.68 93.7208C216.808 94.1467 216.873 94.5489 216.873 94.9275C216.873 95.7794 216.663 96.4301 216.243 96.8797C215.835 97.3292 215.339 97.6132 214.756 97.7315C214.803 97.7788 214.878 97.8143 214.983 97.838C215.123 97.909 215.409 97.9445 215.84 97.9445C216.249 97.9445 216.61 97.838 216.925 97.625C217.252 97.4239 217.543 97.1695 217.8 96.8619C218.068 96.5661 218.295 96.2408 218.482 95.8859C218.68 95.5427 218.838 95.2233 218.954 94.9275L218.989 94.8211L211.537 80.251C211.421 79.9789 211.292 79.7482 211.152 79.5589C211.024 79.3696 210.861 79.2158 210.663 79.0975C210.476 78.9674 210.237 78.8727 209.946 78.8136C209.666 78.7544 209.31 78.7248 208.878 78.7248V72.1408H222.925V78.7248C222.19 78.7248 221.706 78.8372 221.473 79.062C221.252 79.275 221.234 79.6122 221.421 80.0736L223.537 84.6522L225.584 80.0736C225.77 79.6595 225.747 79.3341 225.514 79.0975C225.292 78.849 224.814 78.7248 224.079 78.7248V72.1408H233.823V78.7248C232.96 78.7248 232.353 78.849 232.004 79.0975C231.665 79.3341 231.374 79.7186 231.129 80.251L225.181 93.1529Z" fill="#D9D9D9"/>
<path d="M74.8633 117.881C72.3778 117.881 70.2652 117.022 68.5253 115.303C66.7855 113.583 65.9155 111.496 65.9155 109.04V79.5698C65.9155 77.114 66.7855 75.0265 68.5253 73.3074C70.2652 71.5883 72.3778 70.7287 74.8633 70.7287H83.8111L89.7763 64.8347H101.707L107.672 70.7287H116.62C119.105 70.7287 121.218 71.5883 122.958 73.3074C124.698 75.0265 125.568 77.114 125.568 79.5698V109.04C125.568 111.496 124.698 113.583 122.958 115.303C121.218 117.022 119.105 117.881 116.62 117.881H74.8633ZM95.7415 106.093C99.0224 106.093 101.831 104.939 104.167 102.63C106.504 100.322 107.672 97.5467 107.672 94.305C107.672 91.0633 106.504 88.2881 104.167 85.9796C101.831 83.6711 99.0224 82.5169 95.7415 82.5169C92.4607 82.5169 89.6521 83.6711 87.3157 85.9796C84.9793 88.2881 83.8111 91.0633 83.8111 94.305C83.8111 97.5467 84.9793 100.322 87.3157 102.63C89.6521 104.939 92.4607 106.093 95.7415 106.093ZM43.546 117.881L41.1599 99.0202C39.8675 98.5291 38.6496 97.9397 37.5062 97.252C36.3629 96.5644 35.2444 95.8276 34.1508 95.0418L16.4043 102.409L0 74.4125L15.3604 62.9191C15.261 62.2315 15.2113 61.5684 15.2113 60.9299V56.9514C15.2113 56.3129 15.261 55.6498 15.3604 54.9621L0 43.4687L16.4043 15.4719L34.1508 22.8395C35.2444 22.0536 36.3878 21.3169 37.5808 20.6292C38.7738 19.9416 39.9669 19.3522 41.1599 18.861L43.546 0H76.3546L78.7407 18.861C80.0332 19.3522 81.2511 19.9416 82.3944 20.6292C83.5377 21.3169 84.6562 22.0536 85.7498 22.8395L103.496 15.4719L119.901 43.4687L107.225 53.0466H92.1624C92.063 52.5554 91.9636 52.0397 91.8642 51.4994C91.7648 50.9591 91.6156 50.4433 91.4168 49.9522L104.242 40.3743L98.4259 30.3544L83.662 36.5432C81.4748 34.2838 79.0638 32.3928 76.4292 30.8702C73.7946 29.3475 70.9362 28.1933 67.8542 27.4074L65.9155 11.7881H54.1342L52.0464 27.4074C48.9644 28.1933 46.1061 29.3475 43.4714 30.8702C40.8368 32.3928 38.4259 34.2347 36.2386 36.3958L21.4747 30.3544L15.6587 40.3743L28.4839 49.8048C27.9868 51.2783 27.6388 52.7519 27.4399 54.2254C27.2411 55.6989 27.1417 57.2706 27.1417 58.9406C27.1417 60.5124 27.2411 62.035 27.4399 63.5085C27.6388 64.982 27.9868 66.4556 28.4839 67.9291L15.6587 77.5069L21.4747 87.5268L36.2386 81.3381C38.6247 83.7939 41.3091 85.8568 44.2917 87.5268C47.2743 89.1968 50.5054 90.2774 53.9851 90.7686V117.881H43.546Z" fill="#5BC561"/>
<path d="M76.3234 81.0743L61.4782 66.4061L67.1722 60.7799L82.0174 75.4481L76.3234 81.0743ZM38.9053 81.0743L33.2112 75.4481L51.9203 56.9622L47.3108 52.4077L45.4128 54.2831L41.9557 50.8672V56.3594L40.0576 58.2348L31.8555 50.1304L33.7535 48.2551H39.312L35.9227 44.9062L45.5483 35.3953C46.4522 34.5023 47.4238 33.8548 48.4632 33.4529C49.5025 33.0511 50.5645 32.8501 51.6491 32.8501C52.7337 32.8501 53.7957 33.0511 54.8351 33.4529C55.8745 33.8548 56.8461 34.5023 57.7499 35.3953L51.5135 41.5573L54.9029 44.9062L53.0048 46.7815L57.6143 51.336L63.7151 45.308C63.5343 44.8169 63.3875 44.3034 63.2745 43.7675C63.1615 43.2317 63.105 42.6959 63.105 42.1601C63.105 39.5256 64.0201 37.3042 65.8504 35.4958C67.6806 33.6873 69.9289 32.7831 72.5951 32.7831C73.273 32.7831 73.917 32.8501 74.527 32.9841C75.1371 33.118 75.7585 33.319 76.3912 33.5869L69.6803 40.2177L74.5609 45.0401L81.2718 38.4093C81.5881 39.0344 81.8028 39.6484 81.9158 40.2512C82.0287 40.854 82.0852 41.4903 82.0852 42.1601C82.0852 44.7945 81.1701 47.016 79.3399 48.8244C77.5097 50.6328 75.2614 51.537 72.5951 51.537C72.0528 51.537 71.5105 51.4923 70.9682 51.403C70.426 51.3137 69.9063 51.1574 69.4092 50.9342L38.9053 81.0743Z" fill="#5BC561"/>
<path d="M74.6008 118.122C72.0964 118.122 69.9677 117.253 68.2147 115.516C66.4617 113.778 65.5851 111.668 65.5851 109.186V79.4009C65.5851 76.9187 66.4617 74.8089 68.2147 73.0715C69.9677 71.334 72.0964 70.4653 74.6008 70.4653H83.6164L89.6268 64.5082H101.648L107.658 70.4653H116.674C119.178 70.4653 121.307 71.334 123.06 73.0715C124.813 74.8089 125.689 76.9187 125.689 79.4009V109.186C125.689 111.668 124.813 113.778 123.06 115.516C121.307 117.253 119.178 118.122 116.674 118.122H74.6008ZM95.6373 106.208C98.943 106.208 101.773 105.041 104.127 102.708C106.481 100.375 107.658 97.5699 107.658 94.2935C107.658 91.0172 106.481 88.2124 104.127 85.8792C101.773 83.546 98.943 82.3794 95.6373 82.3794C92.3315 82.3794 89.5016 83.546 87.1475 85.8792C84.7934 88.2124 83.6164 91.0172 83.6164 94.2935C83.6164 97.5699 84.7934 100.375 87.1475 102.708C89.5016 105.041 92.3315 106.208 95.6373 106.208Z" fill="#5BC561"/>
</svg>
