<svg width="272" height="244" viewBox="0 0 272 244" fill="none" xmlns="http://www.w3.org/2000/svg">
<path fill-rule="evenodd" clip-rule="evenodd" d="M130.836 0C143.732 10.0629 148.367 23.1466 144.738 39.2509C149.158 34.2824 154.065 29.9213 159.457 26.1672C168.514 41.0961 169.058 56.3605 161.092 71.9599C155.061 80.4446 147.701 87.5327 139.014 93.2208C137.882 92.3622 137.064 91.2713 136.56 89.9499C135.695 76.8025 135.695 63.7182 136.56 50.699C133.391 52.9236 130.666 52.3783 128.383 49.0636C115.991 32.1628 116.809 15.8083 130.836 0Z" fill="#B7CC70"/>
<path fill-rule="evenodd" clip-rule="evenodd" d="M155.368 32.709C160.022 33.2138 162.476 35.9397 162.727 40.8862C164.904 59.6837 158.089 74.4032 142.284 85.0435C136.483 64.6948 140.843 47.2501 155.368 32.709Z" fill="#B4CD62"/>
<path fill-rule="evenodd" clip-rule="evenodd" d="M101.398 63.7826C99.8166 58.0795 100.361 52.628 103.034 47.4281C102.79 49.1486 103.061 50.784 103.851 52.3344C105.375 48.6285 107.557 45.3576 110.393 42.5217C115.963 46.1266 120.87 50.4879 125.112 55.6054C127.091 66.4185 127.909 77.3209 127.565 88.3144C120.101 88.2326 114.377 84.9617 110.393 78.5017C107.202 70.6057 105.022 62.4285 103.851 53.9699C103.539 57.5807 102.721 60.8516 101.398 63.7826Z" fill="#B7CF64"/>
<path fill-rule="evenodd" clip-rule="evenodd" d="M201.161 50.6989C203.205 50.8254 204.567 51.9156 205.249 53.9698C212.785 76.2855 216.056 99.1818 215.062 122.659C208.564 158.251 187.576 179.785 152.097 187.259C144.602 189.77 136.969 190.86 129.201 190.53C118.084 167.751 118.358 145.128 130.018 122.659C151.832 96.7581 175.546 72.7709 201.161 50.6989ZM143.92 168.451C143.905 165.495 144.723 162.768 146.373 160.274C151.879 154.218 157.877 148.767 164.363 143.92C161.01 154.661 154.197 162.839 143.92 168.451Z" fill="#94D1CB"/>
<path fill-rule="evenodd" clip-rule="evenodd" d="M101.398 63.7828C102.721 60.8517 103.539 57.5808 103.851 53.97C105.022 62.4286 107.202 70.6059 110.393 78.5018C114.377 84.9619 120.101 88.2328 127.565 88.3145C127.909 77.321 127.091 66.4186 125.112 55.6055C120.87 50.488 115.963 46.1267 110.393 42.5219C107.557 45.3577 105.376 48.6286 103.851 52.3346C103.061 50.7842 102.79 49.1487 103.034 47.4282C102.832 42.3781 104.468 38.0169 107.94 34.3446C131.651 49.8665 137.921 70.0371 126.748 94.8564C112.547 89.1126 104.097 78.7553 101.398 63.7828Z" fill="#B8CD78"/>
<path fill-rule="evenodd" clip-rule="evenodd" d="M65.4182 52.3345C84.4924 72.7727 103.3 93.489 121.841 114.482C122.932 116.117 122.932 117.753 121.841 119.388C111.903 133.708 108.632 149.518 112.029 166.816C114.024 174.158 115.932 181.517 117.753 188.895C117.208 190.803 116.662 192.71 116.117 194.619C95.818 185.997 79.1903 172.913 66.2359 155.368C55.9309 137.587 52.1138 118.507 54.7877 98.1271C57.3079 82.5936 60.852 67.3294 65.4182 52.3345Z" fill="#0A3A34"/>
<path fill-rule="evenodd" clip-rule="evenodd" d="M266.579 130.836C268.214 130.836 269.85 130.836 271.485 130.836C270.713 170.251 255.994 203.231 227.328 229.781C206.159 243.445 183.262 247.261 158.639 241.229C151.198 239.483 144.383 236.483 138.196 232.234C137.967 229.363 138.785 226.638 140.649 224.057C144.605 220.371 147.603 216.009 149.644 210.973C161.171 200.446 173.437 190.905 186.442 182.353C213.26 165.142 239.972 147.969 266.579 130.836Z" fill="#649567"/>
<path fill-rule="evenodd" clip-rule="evenodd" d="M132.472 232.234C69.4773 252.666 28.3179 231.405 8.99499 168.452C6.20883 157.672 4.02828 146.769 2.45318 135.743C1.82746 136.652 1.00973 137.197 0 137.378C0 135.198 0 133.016 0 130.836C4.11529 131.253 7.93129 132.617 11.4482 134.925C42.4874 155.046 73.561 175.216 104.669 195.437C116.858 205.449 126.671 217.442 134.107 231.417C133.734 232.069 133.188 232.341 132.472 232.234Z" fill="#3D7449"/>
<path fill-rule="evenodd" clip-rule="evenodd" d="M32.709 158.639C35.491 159.401 37.9441 159.401 40.0686 158.639C47.9776 164.633 56.428 169.539 65.4181 173.358C67.2956 176.055 69.4757 178.508 71.9599 180.718C78.5017 185.079 85.0435 189.439 91.5853 193.801C99.2949 194.428 104.746 198.245 107.94 205.249C104.993 208.237 101.45 210.146 97.3094 210.973C76.7632 211.096 59.0447 203.463 44.1572 188.077C43.6126 188.35 43.0664 188.622 42.5218 188.895C47.8043 191.714 48.3505 194.985 44.1572 198.708C47.9891 197.551 51.8046 198.096 55.6054 200.343C60.2304 204.019 65.1368 207.29 70.3245 210.156C64.6887 211.307 64.6887 213.487 70.3245 216.697C68.8853 218.915 68.339 221.368 68.689 224.057C55.6986 227.912 44.2504 224.369 34.3445 213.427C35.6659 212.923 36.7568 212.105 37.6154 210.973C35.6709 209.454 33.4908 208.909 31.0736 209.338C31.1112 201.751 31.6558 194.12 32.709 186.442C30.529 186.442 28.3478 186.442 26.1672 186.442C26.1672 180.991 26.1672 175.538 26.1672 170.087C38.317 171.4 40.4971 167.585 32.709 158.639Z" fill="#377347"/>
<path opacity="0.804" fill-rule="evenodd" clip-rule="evenodd" d="M132.472 232.234C128.957 235.908 124.595 238.361 119.388 239.594C69.25 252.002 33.5431 234.83 12.2659 188.077C5.38244 171.853 1.29381 154.954 0 137.378C1.00973 137.197 1.82746 136.652 2.45318 135.743C4.02828 146.769 6.20883 157.672 8.99499 168.452C28.3179 231.405 69.4773 252.666 132.472 232.234Z" fill="#5E8B65"/>
</svg>
