<svg width="473" height="369" viewBox="0 0 473 369" fill="none" xmlns="http://www.w3.org/2000/svg">
<path fill-rule="evenodd" clip-rule="evenodd" d="M231.836 0C244.732 10.0629 249.367 23.1466 245.738 39.2509C250.158 34.2824 255.065 29.9213 260.457 26.1672C269.514 41.0961 270.058 56.3605 262.092 71.9599C256.061 80.4446 248.701 87.5327 240.014 93.2208C238.882 92.3622 238.064 91.2713 237.56 89.9499C236.695 76.8025 236.695 63.7182 237.56 50.699C234.391 52.9236 231.666 52.3783 229.383 49.0636C216.991 32.1628 217.809 15.8083 231.836 0Z" fill="#B7CC70"/>
<path fill-rule="evenodd" clip-rule="evenodd" d="M256.368 32.709C261.022 33.2138 263.476 35.9397 263.727 40.8862C265.904 59.6837 259.089 74.4032 243.284 85.0435C237.483 64.6948 241.843 47.2501 256.368 32.709Z" fill="#B4CD62"/>
<path fill-rule="evenodd" clip-rule="evenodd" d="M202.398 63.7826C200.817 58.0795 201.361 52.628 204.034 47.4281C203.79 49.1486 204.061 50.784 204.851 52.3344C206.375 48.6285 208.557 45.3576 211.393 42.5217C216.963 46.1266 221.87 50.4879 226.112 55.6054C228.091 66.4185 228.909 77.3209 228.565 88.3144C221.101 88.2326 215.377 84.9617 211.393 78.5017C208.202 70.6057 206.022 62.4285 204.851 53.9699C204.539 57.5807 203.721 60.8516 202.398 63.7826Z" fill="#B7CF64"/>
<path fill-rule="evenodd" clip-rule="evenodd" d="M302.161 50.6989C304.205 50.8254 305.567 51.9156 306.249 53.9698C313.785 76.2855 317.056 99.1818 316.062 122.659C309.564 158.251 288.576 179.785 253.097 187.259C245.602 189.77 237.969 190.86 230.201 190.53C219.084 167.751 219.358 145.128 231.018 122.659C252.832 96.7581 276.546 72.7709 302.161 50.6989ZM244.92 168.451C244.905 165.495 245.723 162.768 247.373 160.274C252.879 154.218 258.877 148.767 265.363 143.92C262.01 154.661 255.197 162.839 244.92 168.451Z" fill="#94D1CB"/>
<path fill-rule="evenodd" clip-rule="evenodd" d="M202.398 63.7828C203.721 60.8517 204.539 57.5808 204.851 53.97C206.022 62.4286 208.202 70.6059 211.393 78.5018C215.377 84.9619 221.101 88.2328 228.565 88.3145C228.909 77.321 228.091 66.4186 226.112 55.6055C221.87 50.488 216.963 46.1267 211.393 42.5219C208.557 45.3577 206.376 48.6286 204.851 52.3346C204.061 50.7842 203.79 49.1487 204.034 47.4282C203.832 42.3781 205.468 38.0169 208.94 34.3446C232.651 49.8665 238.921 70.0371 227.748 94.8564C213.547 89.1126 205.097 78.7553 202.398 63.7828Z" fill="#B8CD78"/>
<path fill-rule="evenodd" clip-rule="evenodd" d="M166.418 52.3345C185.492 72.7727 204.3 93.489 222.841 114.482C223.932 116.117 223.932 117.753 222.841 119.388C212.903 133.708 209.632 149.518 213.029 166.816C215.024 174.158 216.932 181.517 218.753 188.895C218.208 190.803 217.662 192.71 217.117 194.619C196.818 185.997 180.19 172.913 167.236 155.368C156.931 137.587 153.114 118.507 155.788 98.1271C158.308 82.5936 161.852 67.3294 166.418 52.3345Z" fill="#0A3A34"/>
<path fill-rule="evenodd" clip-rule="evenodd" d="M367.579 130.836C369.214 130.836 370.85 130.836 372.485 130.836C371.713 170.251 356.994 203.231 328.328 229.781C307.159 243.445 284.262 247.261 259.639 241.229C252.198 239.483 245.383 236.483 239.196 232.234C238.967 229.363 239.785 226.638 241.649 224.057C245.605 220.371 248.603 216.009 250.644 210.973C262.171 200.446 274.437 190.905 287.442 182.353C314.26 165.142 340.972 147.969 367.579 130.836Z" fill="#649567"/>
<path fill-rule="evenodd" clip-rule="evenodd" d="M233.472 232.234C170.477 252.666 129.318 231.405 109.995 168.452C107.209 157.672 105.028 146.769 103.453 135.743C102.827 136.652 102.01 137.197 101 137.378C101 135.198 101 133.016 101 130.836C105.115 131.253 108.931 132.617 112.448 134.925C143.487 155.046 174.561 175.216 205.669 195.437C217.858 205.449 227.671 217.442 235.107 231.417C234.734 232.069 234.188 232.341 233.472 232.234Z" fill="#3D7449"/>
<path fill-rule="evenodd" clip-rule="evenodd" d="M133.709 158.639C136.491 159.401 138.944 159.401 141.069 158.639C148.978 164.633 157.428 169.539 166.418 173.358C168.296 176.055 170.476 178.508 172.96 180.718C179.502 185.079 186.044 189.439 192.585 193.801C200.295 194.428 205.746 198.245 208.94 205.249C205.993 208.237 202.45 210.146 198.309 210.973C177.763 211.096 160.045 203.463 145.157 188.077C144.613 188.35 144.066 188.622 143.522 188.895C148.804 191.714 149.351 194.985 145.157 198.708C148.989 197.551 152.805 198.096 156.605 200.343C161.23 204.019 166.137 207.29 171.324 210.156C165.689 211.307 165.689 213.487 171.324 216.697C169.885 218.915 169.339 221.368 169.689 224.057C156.699 227.912 145.25 224.369 135.344 213.427C136.666 212.923 137.757 212.105 138.615 210.973C136.671 209.454 134.491 208.909 132.074 209.338C132.111 201.751 132.656 194.12 133.709 186.442C131.529 186.442 129.348 186.442 127.167 186.442C127.167 180.991 127.167 175.538 127.167 170.087C139.317 171.4 141.497 167.585 133.709 158.639Z" fill="#377347"/>
<path opacity="0.804" fill-rule="evenodd" clip-rule="evenodd" d="M233.472 232.234C229.957 235.908 225.595 238.361 220.388 239.594C170.25 252.002 134.543 234.83 113.266 188.077C106.382 171.853 102.294 154.954 101 137.378C102.01 137.197 102.827 136.652 103.453 135.743C105.028 146.769 107.209 157.672 109.995 168.452C129.318 231.405 170.477 252.666 233.472 232.234Z" fill="#5E8B65"/>
<path d="M10.5938 354C9.71875 354 9.07812 353.797 8.67188 353.391C8.26562 352.984 8.0625 352.359 8.0625 351.516V298.172C8.0625 297.297 8.26562 296.672 8.67188 296.297C9.07812 295.891 9.71875 295.688 10.5938 295.688H39.6562C40.25 295.688 40.6719 295.875 40.9219 296.25C41.2031 296.625 41.3438 297.266 41.3438 298.172V299.531C41.3438 300.375 41.2031 301 40.9219 301.406C40.6719 301.812 40.25 302.016 39.6562 302.016H15.4219V321H37.1719C37.7656 321 38.1875 321.203 38.4375 321.609C38.7188 322.016 38.8594 322.656 38.8594 323.531V324.797C38.8594 325.672 38.7188 326.312 38.4375 326.719C38.1875 327.094 37.7656 327.281 37.1719 327.281H15.4219V347.672H39.75C40.3438 347.672 40.7656 347.875 41.0156 348.281C41.2969 348.656 41.4375 349.281 41.4375 350.156V351.516C41.4375 352.359 41.2969 352.984 41.0156 353.391C40.7656 353.797 40.3438 354 39.75 354H10.5938ZM82.9163 354.469C73.7913 354.469 67.0413 352.062 62.6663 347.25C58.2913 342.438 56.1038 334.953 56.1038 324.797C56.1038 305.016 65.0881 295.125 83.0569 295.125C85.6819 295.125 88.2288 295.406 90.6975 295.969C93.1663 296.5 95.1663 297.172 96.6975 297.984C98.2288 298.797 98.9944 299.578 98.9944 300.328C98.9944 300.797 98.8225 301.422 98.4788 302.203C98.1663 302.984 97.7913 303.672 97.3538 304.266C96.9163 304.859 96.5256 305.156 96.1819 305.156C96.0256 305.156 95.5881 304.953 94.8694 304.547C93.2444 303.672 91.5413 302.938 89.76 302.344C87.9788 301.75 85.8069 301.453 83.2444 301.453C76.5256 301.453 71.5725 303.328 68.385 307.078C65.2288 310.797 63.6506 316.734 63.6506 324.891C63.6506 332.859 65.2131 338.734 68.3381 342.516C71.4944 346.266 76.3538 348.141 82.9163 348.141C85.6663 348.141 88.0256 347.812 89.9944 347.156C91.9631 346.5 93.8538 345.688 95.6663 344.719C96.5413 344.25 97.0725 344.016 97.26 344.016C97.6038 344.016 97.9944 344.312 98.4319 344.906C98.9006 345.5 99.3069 346.172 99.6506 346.922C99.9944 347.641 100.166 348.156 100.166 348.469C100.166 349.25 99.3694 350.125 97.7756 351.094C96.2131 352.031 94.1038 352.828 91.4475 353.484C88.8225 354.141 85.9788 354.469 82.9163 354.469ZM139.161 354.469C130.817 354.469 124.458 351.938 120.083 346.875C115.708 341.812 113.52 334.406 113.52 324.656C113.52 314.938 115.692 307.594 120.036 302.625C124.411 297.625 130.786 295.125 139.161 295.125C147.567 295.125 153.958 297.625 158.333 302.625C162.708 307.594 164.895 314.938 164.895 324.656C164.895 334.406 162.708 341.812 158.333 346.875C153.958 351.938 147.567 354.469 139.161 354.469ZM139.161 348.141C145.036 348.141 149.536 346.141 152.661 342.141C155.786 338.109 157.348 332.281 157.348 324.656C157.348 317.031 155.786 311.266 152.661 307.359C149.567 303.422 145.067 301.453 139.161 301.453C133.286 301.453 128.801 303.422 125.708 307.359C122.614 311.266 121.067 317.031 121.067 324.656C121.067 332.312 122.614 338.141 125.708 342.141C128.801 346.141 133.286 348.141 139.161 348.141Z" fill="#0A3A34"/>
<path d="M195.124 354.469C192.342 354.469 189.858 353.625 187.671 351.938C185.483 350.25 184.389 347.266 184.389 342.984V316.406H180.217C179.624 316.406 179.186 316.219 178.905 315.844C178.655 315.438 178.53 314.797 178.53 313.922V312.891C178.53 312.016 178.655 311.391 178.905 311.016C179.186 310.609 179.624 310.406 180.217 310.406H184.389L185.374 301.688C185.436 300.469 186.327 299.859 188.046 299.859H188.842C189.717 299.859 190.358 300.016 190.764 300.328C191.171 300.609 191.374 301.062 191.374 301.688V310.406H198.358C198.952 310.406 199.374 310.609 199.624 311.016C199.905 311.391 200.046 312.016 200.046 312.891V313.922C200.046 314.797 199.905 315.438 199.624 315.844C199.374 316.219 198.952 316.406 198.358 316.406H191.374V342.328C191.374 344.609 191.764 346.203 192.546 347.109C193.358 348.016 194.452 348.469 195.827 348.469C196.889 348.469 197.702 348.406 198.264 348.281C198.858 348.156 199.249 348.094 199.436 348.094C199.936 348.094 200.342 348.594 200.655 349.594C200.999 350.594 201.171 351.391 201.171 351.984C201.171 353.641 199.155 354.469 195.124 354.469ZM220.384 299.906C218.165 299.906 217.056 299.297 217.056 298.078V293.156C217.056 291.938 218.165 291.328 220.384 291.328H221.368C223.618 291.328 224.743 291.938 224.743 293.156V298.078C224.743 299.297 223.618 299.906 221.368 299.906H220.384ZM220.712 354.141C218.493 354.141 217.384 353.531 217.384 352.312V312.094C217.384 310.875 218.493 310.266 220.712 310.266H221.04C223.29 310.266 224.415 310.875 224.415 312.094V352.312C224.415 353.531 223.29 354.141 221.04 354.141H220.712ZM258.159 354.469C254.909 354.469 252.066 353.531 249.628 351.656C247.191 349.75 245.3 347.109 243.956 343.734C242.644 340.359 241.988 336.531 241.988 332.25C241.988 327.531 242.691 323.5 244.097 320.156C245.534 316.781 247.534 314.234 250.097 312.516C252.659 310.797 255.613 309.938 258.956 309.938C261.363 309.938 263.488 310.297 265.331 311.016C267.206 311.734 269.05 312.781 270.863 314.156V293.156C270.863 291.938 271.956 291.328 274.144 291.328H274.519C276.738 291.328 277.847 291.938 277.847 293.156V341.672C277.847 345.297 278.019 347.922 278.363 349.547C278.706 351.141 278.878 352.016 278.878 352.172C278.878 352.859 278.347 353.359 277.284 353.672C276.253 353.953 275.284 354.094 274.378 354.094C273.753 354.094 273.253 353.797 272.878 353.203C272.503 352.609 272.238 352.016 272.081 351.422C271.956 350.797 271.738 349.734 271.425 348.234C267.456 352.391 263.034 354.469 258.159 354.469ZM259.613 348.422C261.456 348.422 263.363 347.922 265.331 346.922C267.331 345.922 269.175 344.5 270.863 342.656V319.828C267.863 317.328 264.441 316.078 260.597 316.078C256.878 316.172 254.066 317.531 252.159 320.156C250.284 322.781 249.347 326.594 249.347 331.594C249.347 336.969 250.222 341.125 251.972 344.062C253.753 346.969 256.3 348.422 259.613 348.422ZM301.185 299.906C298.966 299.906 297.857 299.297 297.857 298.078V293.156C297.857 291.938 298.966 291.328 301.185 291.328H302.169C304.419 291.328 305.544 291.938 305.544 293.156V298.078C305.544 299.297 304.419 299.906 302.169 299.906H301.185ZM301.513 354.141C299.294 354.141 298.185 353.531 298.185 352.312V312.094C298.185 310.875 299.294 310.266 301.513 310.266H301.841C304.091 310.266 305.216 310.875 305.216 312.094V352.312C305.216 353.531 304.091 354.141 301.841 354.141H301.513ZM336.804 354.469C332.554 354.469 329.117 353.422 326.492 351.328C323.867 349.234 322.554 346.125 322.554 342C322.554 337.656 323.883 334.391 326.539 332.203C329.195 329.984 332.429 328.562 336.242 327.938C340.086 327.281 344.742 326.906 350.211 326.812V322.875C350.211 320.781 349.492 319.109 348.054 317.859C346.648 316.578 344.32 315.938 341.07 315.938C338.601 315.938 336.429 316.234 334.554 316.828C332.711 317.391 330.976 318.078 329.351 318.891C328.664 319.234 328.242 319.406 328.086 319.406C327.711 319.406 327.289 319.141 326.82 318.609C326.383 318.047 325.992 317.422 325.648 316.734C325.336 316.047 325.179 315.547 325.179 315.234C325.179 314.516 325.914 313.734 327.383 312.891C328.883 312.047 330.836 311.344 333.242 310.781C335.648 310.219 338.164 309.938 340.789 309.938C346.008 309.938 350.054 311.078 352.929 313.359C355.804 315.641 357.242 318.844 357.242 322.969V341.672C357.242 345.297 357.398 347.922 357.711 349.547C358.054 351.141 358.226 352.016 358.226 352.172C358.226 352.859 357.695 353.359 356.633 353.672C355.601 353.953 354.633 354.094 353.726 354.094C352.976 354.094 352.414 353.672 352.039 352.828C351.695 351.984 351.351 350.766 351.008 349.172L350.82 348.234C349.101 350.141 347.07 351.656 344.726 352.781C342.414 353.906 339.773 354.469 336.804 354.469ZM337.179 348.422C339.929 348.422 342.273 347.922 344.211 346.922C346.148 345.922 348.148 344.5 350.211 342.656V332.812C346.086 332.844 342.695 333.016 340.039 333.328C337.383 333.641 335.054 334.438 333.054 335.719C331.054 336.969 330.054 338.922 330.054 341.578C330.054 343.797 330.648 345.5 331.836 346.688C333.054 347.844 334.836 348.422 337.179 348.422ZM380.252 354.141C379.064 354.141 378.205 354 377.674 353.719C377.143 353.406 376.877 352.938 376.877 352.312V323.062C376.877 319.438 376.705 316.828 376.361 315.234C376.018 313.609 375.846 312.719 375.846 312.562C375.846 311.875 376.361 311.391 377.393 311.109C378.455 310.797 379.455 310.641 380.393 310.641C381.174 310.641 381.752 311.062 382.127 311.906C382.502 312.75 382.768 313.609 382.924 314.484C383.111 315.359 383.236 315.922 383.299 316.172C385.049 314.203 387.064 312.672 389.346 311.578C391.658 310.484 393.986 309.938 396.33 309.938C400.58 309.938 403.893 311.141 406.268 313.547C408.674 315.922 409.877 319.203 409.877 323.391V352.312C409.877 352.938 409.611 353.406 409.08 353.719C408.549 354 407.705 354.141 406.549 354.141H406.174C405.049 354.141 404.221 354 403.689 353.719C403.158 353.406 402.893 352.938 402.893 352.312V324.094C402.893 321.531 402.143 319.547 400.643 318.141C399.174 316.703 397.096 315.984 394.408 315.984C392.533 315.984 390.643 316.516 388.736 317.578C386.861 318.609 385.236 320.031 383.861 321.844V352.312C383.861 352.938 383.596 353.406 383.064 353.719C382.533 354 381.705 354.141 380.58 354.141H380.252ZM445.777 354.469C439.496 354.469 434.699 352.594 431.387 348.844C428.106 345.062 426.465 339.578 426.465 332.391C426.465 325.203 428.137 319.672 431.481 315.797C434.824 311.891 439.59 309.938 445.777 309.938C451.902 309.938 456.59 311.875 459.84 315.75C463.09 319.594 464.715 325.141 464.715 332.391C464.715 339.609 463.106 345.094 459.887 348.844C456.699 352.594 451.996 354.469 445.777 354.469ZM445.543 348.469C449.606 348.469 452.606 347.156 454.543 344.531C456.481 341.875 457.449 337.781 457.449 332.25C457.449 326.688 456.481 322.578 454.543 319.922C452.606 317.266 449.606 315.938 445.543 315.938C441.512 315.938 438.543 317.266 436.637 319.922C434.731 322.547 433.777 326.656 433.777 332.25C433.777 337.812 434.715 341.906 436.59 344.531C438.496 347.156 441.481 348.469 445.543 348.469Z" fill="#3D7449"/>
</svg>
