<svg width="966" height="897" viewBox="0 0 966 897" fill="none" xmlns="http://www.w3.org/2000/svg">
<rect width="966" height="897" fill="#143029"/>
<path fill-rule="evenodd" clip-rule="evenodd" d="M356.05 402.123C357.635 402.374 359.063 402.976 360.334 403.928C359.239 404.603 359.036 405.405 359.722 406.334C360.304 405.837 360.917 405.737 361.559 406.033C360.807 406.502 360.195 407.104 359.722 407.838C360.119 408.705 360.323 409.607 360.334 410.546C358.594 407.927 357.166 405.119 356.05 402.123Z" fill="#11381F"/>
<path fill-rule="evenodd" clip-rule="evenodd" d="M356.05 402.123C355.406 402.033 354.793 402.133 354.213 402.424C351.039 404.883 347.774 407.189 344.42 409.343C343.964 407.267 344.781 406.265 346.868 406.334C346.868 405.532 346.868 404.73 346.868 403.928C347.684 403.928 348.5 403.928 349.316 403.928C349.128 401.995 349.842 401.393 351.459 402.123C352.938 400.947 354.468 400.947 356.05 402.123Z" fill="#123B1F"/>
<path fill-rule="evenodd" clip-rule="evenodd" d="M356.049 402.123C357.165 405.119 358.594 407.927 360.334 410.546C360.413 411.578 360.617 412.581 360.946 413.554C361.247 414.949 361.86 416.152 362.783 417.164C363.728 420.751 364.544 424.36 365.231 427.993C366.22 434.556 366.628 441.174 366.455 447.847C366.293 450.466 365.987 453.073 365.537 455.668C364.063 459.317 362.532 462.927 360.946 466.498C359.622 467.895 358.601 469.499 357.886 471.311C355.803 472.755 354.17 474.559 352.989 476.725C351.609 477.101 350.589 477.903 349.928 479.132C349.25 479.166 348.638 479.367 348.092 479.734C346.601 479.623 345.275 480.025 344.113 480.937C341.761 479.27 339.619 479.571 337.686 481.839C336.501 482.328 335.277 482.629 334.014 482.742C334.048 479.841 334.864 477.234 336.462 474.92C336.258 474.519 336.054 474.118 335.85 473.717C336.698 470.755 337.31 467.747 337.686 464.693C338.976 457.143 340.812 449.723 343.195 442.432C343.195 442.031 343.195 441.63 343.195 441.229C344.361 438.994 345.177 436.587 345.644 434.009C346.81 431.364 347.626 428.557 348.092 425.586C349.711 422.8 350.629 419.792 350.847 416.562C349.176 419.443 347.85 422.451 346.868 425.586C345.901 427.487 345.289 429.493 345.032 431.603C343.839 432.698 343.227 434.102 343.195 435.814C341.715 437.958 340.694 440.365 340.135 443.034C340.135 443.234 340.135 443.435 340.135 443.635C339.263 444.848 338.855 446.251 338.911 447.847C338.05 448.131 337.642 448.733 337.686 449.652C336.87 452.462 336.053 455.27 335.238 458.075C334.15 459.883 333.538 461.888 333.402 464.091C332.707 465.818 332.3 467.623 332.177 469.506C331.306 470.718 330.898 472.122 330.953 473.717C330.953 473.918 330.953 474.118 330.953 474.319C330.07 476.795 329.458 479.401 329.117 482.14C328.238 482.916 327.626 483.918 327.281 485.148C326.922 485.022 326.616 484.822 326.362 484.547C326.258 480.227 325.952 476.016 325.444 471.912C325.646 470.271 325.238 468.867 324.22 467.701C323.233 461.952 320.785 456.938 316.875 452.66C316.466 451.858 315.854 451.256 315.038 450.855C314.996 447.781 315.404 444.773 316.263 441.831C318.34 437.548 320.584 433.336 322.996 429.196C324.611 427.407 326.243 425.602 327.893 423.782C329.542 421.76 331.378 419.955 333.402 418.367C336.454 416.168 339.31 413.761 341.971 411.147C342.175 411.147 342.379 411.147 342.583 411.147C343.399 410.746 344.011 410.144 344.419 409.342C347.774 407.189 351.039 404.883 354.213 402.424C354.793 402.133 355.406 402.033 356.049 402.123Z" fill="#55C30E"/>
<path fill-rule="evenodd" clip-rule="evenodd" d="M341.971 411.147C339.31 413.762 336.454 416.168 333.402 418.367C334.958 416.004 336.794 413.899 338.911 412.05C338.398 411.442 338.194 410.74 338.298 409.944C339.523 410.346 340.747 410.746 341.971 411.147Z" fill="#143B1C"/>
<path fill-rule="evenodd" clip-rule="evenodd" d="M344.42 409.343C344.011 410.145 343.399 410.746 342.583 411.147C342.583 409.944 343.195 409.343 344.42 409.343Z" fill="#195B0C"/>
<path fill-rule="evenodd" clip-rule="evenodd" d="M360.946 413.554C362.194 414.403 362.806 415.606 362.783 417.164C361.86 416.152 361.247 414.949 360.946 413.554Z" fill="#134D0D"/>
<path fill-rule="evenodd" clip-rule="evenodd" d="M348.092 425.587C347.824 424.981 347.416 424.981 346.868 425.587C347.85 422.451 349.176 419.443 350.847 416.562C350.629 419.792 349.711 422.801 348.092 425.587Z" fill="#175C09"/>
<path fill-rule="evenodd" clip-rule="evenodd" d="M327.893 423.782C326.243 425.602 324.611 427.407 322.996 429.196C323.524 428.33 323.524 427.528 322.996 426.79C323.501 426.257 324.113 426.057 324.832 426.188C324.832 425.587 324.832 424.985 324.832 424.383C325.883 424.306 326.903 424.105 327.893 423.782Z" fill="#0E3E16"/>
<path fill-rule="evenodd" clip-rule="evenodd" d="M348.092 425.586C347.626 428.557 346.81 431.364 345.644 434.009C345.808 433.047 345.603 432.245 345.032 431.603C345.289 429.493 345.901 427.487 346.868 425.586C347.416 424.981 347.824 424.981 348.092 425.586Z" fill="#0D3E0E"/>
<path fill-rule="evenodd" clip-rule="evenodd" d="M272.191 430.4C278.781 432.692 285.31 435.098 291.778 437.619C296.158 439.872 300.443 442.278 304.633 444.839C309.403 448.522 313.279 452.935 316.263 458.075C316.4 459.907 317.216 461.311 318.711 462.286C319.346 463.147 319.754 464.15 319.935 465.294C321.566 471.903 321.566 478.521 319.935 485.148C319.374 484.771 318.762 484.57 318.099 484.547C314.567 479.802 310.894 475.189 307.081 470.709C306.726 469.356 305.91 468.354 304.633 467.701C304.074 466.441 303.36 465.237 302.49 464.091C297.977 459.356 293.59 454.543 289.33 449.652C287.276 447.126 285.032 445.021 282.597 443.335C284.583 445.581 286.419 447.887 288.106 450.254C296.663 461.869 305.437 473.3 314.426 484.547C314.8 485.083 315.004 485.684 315.038 486.352C315.163 487.281 315.571 488.083 316.263 488.758C311.792 489.358 307.303 489.559 302.796 489.36C301.532 489.35 300.308 489.149 299.124 488.758C298.92 488.758 298.715 488.758 298.512 488.758C297.483 487.851 296.258 487.249 294.839 486.953C293.983 486.117 292.962 485.515 291.778 485.148C288.734 482.357 285.673 479.55 282.597 476.726C280.401 473.01 278.36 469.2 276.476 465.294C276.006 463.099 275.19 461.094 274.027 459.278C273.92 457.337 273.511 455.532 272.803 453.863C272.314 446.052 272.11 438.231 272.191 430.4Z" fill="#54C20F"/>
<path fill-rule="evenodd" clip-rule="evenodd" d="M272.191 430.4C272.446 430.024 272.855 429.824 273.415 429.798C280.049 431.511 286.17 434.118 291.779 437.619C285.31 435.098 278.781 432.692 272.191 430.4Z" fill="#0F4315"/>
<path fill-rule="evenodd" clip-rule="evenodd" d="M345.032 431.603C345.603 432.246 345.808 433.048 345.644 434.01C344.661 435.201 343.947 436.604 343.501 438.221C343.201 437.443 343.099 436.641 343.195 435.815C343.227 434.102 343.839 432.698 345.032 431.603Z" fill="#0C2E1B"/>
<path fill-rule="evenodd" clip-rule="evenodd" d="M345.644 434.009C345.177 436.587 344.361 438.994 343.195 441.229C343.356 440.34 343.152 439.538 342.583 438.823C341.986 440.418 341.17 441.822 340.135 443.034C340.694 440.365 341.715 437.959 343.195 435.814C343.099 436.64 343.201 437.443 343.501 438.221C343.947 436.604 344.661 435.201 345.644 434.009Z" fill="#0C4010"/>
<path fill-rule="evenodd" clip-rule="evenodd" d="M365.231 427.993C365.917 429.47 366.427 431.074 366.761 432.806C367.067 437.816 367.169 442.829 367.067 447.847C366.864 447.847 366.659 447.847 366.455 447.847C366.628 441.174 366.22 434.556 365.231 427.993Z" fill="#4B9A22"/>
<path fill-rule="evenodd" clip-rule="evenodd" d="M343.195 441.229C343.195 441.631 343.195 442.031 343.195 442.433C341.837 444.408 340.817 446.613 340.135 449.051C339.632 447.278 339.632 445.473 340.135 443.636C340.135 443.435 340.135 443.235 340.135 443.034C341.171 441.823 341.986 440.418 342.583 438.823C343.152 439.538 343.356 440.34 343.195 441.229Z" fill="#0E2B28"/>
<path fill-rule="evenodd" clip-rule="evenodd" d="M316.263 441.831C315.404 444.773 314.996 447.782 315.038 450.855C314.207 450.178 313.391 450.178 312.59 450.855C313.97 452.598 315.296 454.403 316.569 456.27C316.864 456.84 316.966 457.442 316.875 458.075C316.671 458.075 316.467 458.075 316.263 458.075C313.279 452.935 309.403 448.522 304.633 444.839C306.633 444.92 308.062 445.822 308.917 447.546C309.733 447.948 310.55 447.948 311.366 447.546C312.118 446.626 313.036 445.924 314.12 445.441C314.488 443.991 315.201 442.787 316.263 441.831Z" fill="#0F381C"/>
<path fill-rule="evenodd" clip-rule="evenodd" d="M289.33 449.652C288.723 449.549 288.315 449.749 288.106 450.254C286.42 447.887 284.583 445.581 282.597 443.335C285.032 445.021 287.277 447.126 289.33 449.652Z" fill="#115505"/>
<path fill-rule="evenodd" clip-rule="evenodd" d="M343.195 442.432C340.812 449.723 338.976 457.144 337.686 464.693C337.278 465.294 336.87 465.896 336.462 466.498C336.585 464.688 336.789 462.883 337.074 461.083C336.87 460.281 336.666 459.478 336.462 458.676C336.045 459.124 335.636 459.524 335.238 459.88C335.238 459.278 335.238 458.676 335.238 458.075C336.053 455.27 336.87 452.462 337.686 449.652C338.547 449.367 338.955 448.766 338.911 447.847C338.855 446.252 339.263 444.848 340.135 443.636C339.632 445.473 339.632 447.278 340.135 449.05C340.817 446.613 341.837 444.408 343.195 442.432Z" fill="#123C1B"/>
<path fill-rule="evenodd" clip-rule="evenodd" d="M338.911 447.847C338.955 448.766 338.547 449.367 337.686 449.652C337.642 448.733 338.05 448.131 338.911 447.847Z" fill="#226717"/>
<path fill-rule="evenodd" clip-rule="evenodd" d="M272.191 430.4C272.11 438.231 272.314 446.052 272.803 453.863C271.473 448.714 270.861 443.399 270.967 437.92C270.972 435.178 271.38 432.671 272.191 430.4Z" fill="#1B5418"/>
<path fill-rule="evenodd" clip-rule="evenodd" d="M338.911 449.652C339.293 449.903 339.496 450.304 339.523 450.855C338.92 453.134 338.206 455.339 337.38 457.473C337.142 454.73 337.652 452.123 338.911 449.652Z" fill="#112C2E"/>
<path fill-rule="evenodd" clip-rule="evenodd" d="M315.039 450.855C315.854 451.257 316.467 451.858 316.875 452.66C317.128 454.887 317.945 456.893 319.323 458.676C319.044 459.157 318.635 459.357 318.099 459.278C317.487 459.078 317.079 458.676 316.875 458.075C316.966 457.442 316.864 456.84 316.569 456.27C315.296 454.402 313.97 452.598 312.59 450.855C313.391 450.178 314.207 450.178 315.039 450.855Z" fill="#112F27"/>
<path fill-rule="evenodd" clip-rule="evenodd" d="M335.238 458.075C335.238 458.677 335.238 459.278 335.238 459.88C334.734 461.376 334.122 462.78 333.402 464.091C333.538 461.888 334.15 459.883 335.238 458.075Z" fill="#185B0F"/>
<path fill-rule="evenodd" clip-rule="evenodd" d="M316.263 458.075C316.467 458.075 316.671 458.075 316.875 458.075C317.079 458.677 317.487 459.078 318.099 459.278C318.178 460.311 318.382 461.314 318.711 462.286C317.216 461.311 316.4 459.908 316.263 458.075Z" fill="#4D9A25"/>
<path fill-rule="evenodd" clip-rule="evenodd" d="M274.027 459.278C275.19 461.094 276.006 463.099 276.476 465.295C275.009 463.605 274.193 461.599 274.027 459.278Z" fill="#1B5A1A"/>
<path fill-rule="evenodd" clip-rule="evenodd" d="M366.455 447.847C366.659 447.847 366.864 447.847 367.067 447.847C367.05 454.31 365.418 460.327 362.17 465.896C361.891 466.376 361.482 466.576 360.946 466.498C362.532 462.927 364.063 459.317 365.537 455.668C365.987 453.073 366.293 450.466 366.455 447.847Z" fill="#114214"/>
<path fill-rule="evenodd" clip-rule="evenodd" d="M316.875 452.66C320.785 456.938 323.233 461.952 324.22 467.701C323.455 467.655 322.945 467.253 322.69 466.498C322.588 467.099 322.486 467.701 322.384 468.303C323.139 472.407 323.139 476.418 322.384 480.335C322.58 477.011 322.376 473.802 321.772 470.709C321.51 468.733 320.898 466.928 319.935 465.294C319.754 464.15 319.346 463.147 318.711 462.286C318.382 461.313 318.178 460.311 318.099 459.278C318.635 459.357 319.043 459.157 319.323 458.676C317.945 456.893 317.128 454.887 316.875 452.66Z" fill="#103321"/>
<path fill-rule="evenodd" clip-rule="evenodd" d="M289.33 449.652C293.59 454.543 297.977 459.356 302.49 464.091C303.36 465.237 304.075 466.441 304.633 467.701C304.988 469.054 305.804 470.057 307.081 470.709C310.895 475.189 314.567 479.802 318.099 484.547C318.099 484.747 318.099 484.948 318.099 485.149C317.294 484.561 316.478 483.96 315.651 483.344C315.233 483.791 314.825 484.191 314.426 484.547C305.437 473.301 296.663 461.87 288.106 450.254C288.315 449.75 288.723 449.549 289.33 449.652Z" fill="#113420"/>
<path fill-rule="evenodd" clip-rule="evenodd" d="M336.462 467.099C335.823 470.021 335.007 472.828 334.014 475.522C334.23 472.867 334.74 470.26 335.544 467.701C335.778 467.367 336.085 467.166 336.462 467.099Z" fill="#0D450F"/>
<path fill-rule="evenodd" clip-rule="evenodd" d="M304.633 467.701C305.91 468.354 306.726 469.356 307.081 470.709C305.804 470.056 304.988 469.054 304.633 467.701Z" fill="#10470F"/>
<path fill-rule="evenodd" clip-rule="evenodd" d="M324.22 467.701C324.322 472.919 324.22 478.133 323.914 483.344C323.658 484.049 323.25 484.65 322.69 485.148C322.386 483.557 322.283 481.952 322.384 480.335C323.139 476.418 323.139 472.407 322.384 468.303C322.486 467.701 322.588 467.099 322.69 466.498C322.945 467.253 323.455 467.655 324.22 467.701Z" fill="#0F2C29"/>
<path fill-rule="evenodd" clip-rule="evenodd" d="M332.177 469.506C332.232 471.101 331.825 472.505 330.953 473.717C330.898 472.122 331.306 470.718 332.177 469.506Z" fill="#144E09"/>
<path fill-rule="evenodd" clip-rule="evenodd" d="M357.886 471.311C356.705 473.477 355.072 475.282 352.989 476.725C354.17 474.56 355.803 472.755 357.886 471.311Z" fill="#0D4914"/>
<path fill-rule="evenodd" clip-rule="evenodd" d="M319.935 465.294C320.898 466.928 321.51 468.733 321.772 470.709C321.947 475.754 321.641 480.768 320.854 485.75C319.806 486.4 318.888 486.2 318.099 485.148C318.099 484.948 318.099 484.747 318.099 484.547C318.762 484.57 319.374 484.771 319.935 485.148C321.567 478.521 321.567 471.903 319.935 465.294Z" fill="#51A72D"/>
<path fill-rule="evenodd" clip-rule="evenodd" d="M282.597 476.726C285.673 479.55 288.734 482.357 291.779 485.148C290.751 484.913 289.73 484.612 288.718 484.246C286.533 481.803 284.492 479.296 282.597 476.726Z" fill="#0E3E14"/>
<path fill-rule="evenodd" clip-rule="evenodd" d="M363.395 494.173C365.19 490.484 366.618 486.674 367.68 482.742C368.251 482.099 368.456 481.297 368.292 480.335C364.609 480.391 360.937 480.592 357.274 480.937C361.517 479.896 365.802 478.994 370.128 478.23C369.393 480.872 368.883 483.579 368.598 486.352C366.796 488.489 365.47 490.896 364.619 493.571C364.339 494.052 363.931 494.252 363.395 494.173Z" fill="#11391D"/>
<path fill-rule="evenodd" clip-rule="evenodd" d="M367.68 482.742C367.68 482.14 367.68 481.538 367.68 480.937C364.208 481.093 360.739 481.294 357.274 481.538C357.274 481.338 357.274 481.137 357.274 480.937C360.937 480.592 364.609 480.391 368.292 480.335C368.456 481.297 368.251 482.099 367.68 482.742Z" fill="#52A732"/>
<path fill-rule="evenodd" clip-rule="evenodd" d="M330.953 474.319C331.12 477.758 330.508 480.966 329.117 483.945C329.117 483.343 329.117 482.742 329.117 482.14C329.458 479.402 330.07 476.795 330.953 474.319Z" fill="#114016"/>
<path fill-rule="evenodd" clip-rule="evenodd" d="M337.686 464.693C337.31 467.747 336.698 470.755 335.85 473.717C336.054 474.119 336.258 474.519 336.462 474.921C334.864 477.234 334.048 479.841 334.014 482.742C335.277 482.629 336.501 482.329 337.686 481.839C339.619 479.571 341.761 479.27 344.114 480.937C345.275 480.025 346.601 479.624 348.092 479.734C343.391 483.245 338.086 485.451 332.177 486.352C332.177 485.75 332.177 485.148 332.177 484.547C332.887 481.558 333.499 478.55 334.014 475.522C335.007 472.828 335.823 470.021 336.462 467.099C336.462 466.899 336.462 466.698 336.462 466.498C336.871 465.896 337.278 465.295 337.686 464.693Z" fill="#56B81B"/>
<path fill-rule="evenodd" clip-rule="evenodd" d="M349.929 479.132C349.229 481.5 347.596 482.803 345.032 483.043C347.042 483.633 348.674 483.131 349.929 481.539C352.343 480.942 354.792 480.742 357.274 480.937C357.274 481.137 357.274 481.338 357.274 481.539C348.693 482.456 342.062 486.467 337.38 493.571C337.08 494.349 336.978 495.152 337.074 495.978C336.871 495.978 336.666 495.978 336.462 495.978C336.364 494.956 336.466 493.953 336.768 492.97C337.525 492.429 338.035 491.727 338.299 490.864C337.809 489.788 337.604 488.785 337.686 487.856C340.722 488.227 342.967 487.124 344.42 484.547C342.272 484.206 340.232 484.707 338.299 486.051C336.086 486.614 333.842 486.915 331.565 486.953C331.401 485.991 331.606 485.189 332.178 484.547C332.178 485.148 332.178 485.75 332.178 486.352C338.086 485.451 343.391 483.245 348.092 479.734C348.638 479.367 349.25 479.166 349.929 479.132Z" fill="#153D1C"/>
<path fill-rule="evenodd" clip-rule="evenodd" d="M325.444 471.912C325.952 476.016 326.258 480.228 326.363 484.547C326.616 484.822 326.922 485.023 327.281 485.148C327.627 483.919 328.239 482.916 329.117 482.14C329.117 482.742 329.117 483.344 329.117 483.945C328.554 486.962 327.942 489.97 327.281 492.97C327.379 491.947 327.277 490.945 326.975 489.962C326.77 492.51 326.26 494.917 325.444 497.181C325.693 493.353 326.101 489.542 326.669 485.75C326.056 485.75 325.444 485.75 324.832 485.75C325.226 481.148 325.43 476.535 325.444 471.912Z" fill="#4DA623"/>
<path fill-rule="evenodd" clip-rule="evenodd" d="M324.22 467.701C325.238 468.867 325.646 470.271 325.444 471.912C325.43 476.535 325.226 481.148 324.832 485.75C325.444 485.75 326.056 485.75 326.668 485.75C326.101 489.542 325.693 493.353 325.444 497.181C325.444 501.393 325.444 505.604 325.444 509.815C325.036 503.293 324.628 496.675 324.22 489.962C323.032 489.032 322.319 487.829 322.078 486.352C321.021 486.999 319.899 487.1 318.711 486.653C318.251 486.249 318.046 485.748 318.099 485.148C318.888 486.2 319.806 486.4 320.853 485.75C321.641 480.768 321.947 475.755 321.772 470.709C322.376 473.802 322.58 477.011 322.384 480.335C322.283 481.952 322.385 483.557 322.69 485.148C323.25 484.65 323.657 484.049 323.914 483.344C324.22 478.133 324.322 472.919 324.22 467.701Z" fill="#103C19"/>
<path fill-rule="evenodd" clip-rule="evenodd" d="M294.839 486.953C296.258 487.249 297.483 487.851 298.512 488.758C296.927 488.782 295.703 488.18 294.839 486.953Z" fill="#0A3E0C"/>
<path fill-rule="evenodd" clip-rule="evenodd" d="M315.038 486.352C316.917 487.136 317.529 488.339 316.875 489.961C314.335 490.228 311.785 490.429 309.223 490.563C306.894 490.681 304.752 490.28 302.796 489.36C307.303 489.559 311.792 489.358 316.263 488.758C315.571 488.083 315.163 487.281 315.038 486.352Z" fill="#52A321"/>
<path fill-rule="evenodd" clip-rule="evenodd" d="M367.679 482.742C366.618 486.673 365.189 490.484 363.395 494.173C361.372 496.363 359.332 498.57 357.274 500.791C354.984 502.115 352.536 503.118 349.928 503.799C346.845 503.851 343.785 503.651 340.747 503.197C339.791 503.057 338.975 502.656 338.298 501.994C338.305 501.081 338.713 500.379 339.523 499.888C345.403 496.313 351.116 492.503 356.662 488.457C349.592 490.983 343.165 494.693 337.38 499.588C337.077 498.401 336.975 497.197 337.074 495.978C336.978 495.152 337.08 494.349 337.38 493.571C342.062 486.467 348.693 482.455 357.274 481.539C360.739 481.294 364.208 481.093 367.679 480.937C367.679 481.539 367.679 482.14 367.679 482.742Z" fill="#55C011"/>
<path fill-rule="evenodd" clip-rule="evenodd" d="M299.124 488.758C300.308 489.149 301.532 489.35 302.796 489.36C304.752 490.28 306.894 490.681 309.224 490.563C311.785 490.429 314.335 490.228 316.875 489.961C314.979 490.756 312.836 491.157 310.448 491.165C308.305 491.064 306.163 490.964 304.021 490.864C302.077 490.567 300.445 489.865 299.124 488.758Z" fill="#0B3612"/>
<path fill-rule="evenodd" clip-rule="evenodd" d="M338.298 501.994C338.095 501.994 337.89 501.994 337.686 501.994C336.706 500.139 336.298 498.133 336.462 495.978C336.666 495.978 336.87 495.978 337.074 495.978C336.975 497.197 337.077 498.401 337.38 499.588C343.165 494.693 349.592 490.983 356.661 488.457C351.116 492.503 345.403 496.314 339.523 499.888C338.713 500.379 338.305 501.081 338.298 501.994Z" fill="#124514"/>
<path fill-rule="evenodd" clip-rule="evenodd" d="M363.395 494.173C363.491 494.999 363.389 495.801 363.089 496.579C361.214 498.129 359.276 499.533 357.274 500.791C359.332 498.57 361.372 496.363 363.395 494.173Z" fill="#0D4211"/>
<path fill-rule="evenodd" clip-rule="evenodd" d="M329.117 483.945C328.338 492.646 327.726 501.269 327.281 509.815C327.281 504.2 327.281 498.585 327.281 492.97C327.942 489.97 328.554 486.962 329.117 483.945Z" fill="#265C14"/>
<path fill-rule="evenodd" clip-rule="evenodd" d="M327.281 492.97C327.281 498.585 327.281 504.2 327.281 509.815C326.668 509.815 326.056 509.815 325.444 509.815C325.444 505.604 325.444 501.393 325.444 497.181C326.26 494.917 326.769 492.51 326.974 489.962C327.277 490.945 327.378 491.948 327.281 492.97Z" fill="#56BB1F"/>
<path fill-rule="evenodd" clip-rule="evenodd" d="M340.747 503.198C343.785 503.651 346.845 503.851 349.928 503.799C348.824 504.197 347.6 504.398 346.256 504.401C344.227 504.495 342.391 504.095 340.747 503.198Z" fill="#4B8E26"/>
<path fill-rule="evenodd" clip-rule="evenodd" d="M336.462 495.978C336.298 498.133 336.707 500.139 337.687 501.994C335.195 503.534 332.951 505.44 330.953 507.71C330.545 508.111 330.137 508.111 329.729 507.71C328.846 505.737 328.948 503.833 330.035 501.994C330.273 502.552 330.681 502.954 331.259 503.197C332.591 501.98 334.121 501.178 335.85 500.791C335.663 499.055 335.867 497.451 336.462 495.978Z" fill="#10371C"/>
<path fill-rule="evenodd" clip-rule="evenodd" d="M334.626 501.393C335.078 501.314 335.487 501.414 335.85 501.693C334.116 503.398 332.381 505.103 330.647 506.807C330.239 506.406 330.239 506.005 330.647 505.604C332.099 504.279 333.426 502.874 334.626 501.393Z" fill="#50823E"/>
<path fill-rule="evenodd" clip-rule="evenodd" d="M160.033 409.225C160.033 408.87 160.033 408.515 160.033 408.16C161.087 403.045 161.444 397.723 161.101 392.193C140.09 392.193 119.08 392.193 98.0681 392.193C106.996 390.678 116.077 389.613 125.311 389C137.532 389.699 149.818 390.408 162.17 391.129C163.364 396.749 163.541 402.426 162.704 408.16C161.987 408.961 161.097 409.316 160.033 409.225Z" fill="#0D351E"/>
<path fill-rule="evenodd" clip-rule="evenodd" d="M234.818 391.129C228.56 390.786 222.505 391.141 216.656 392.193C214.45 392.211 212.313 392.566 210.246 393.258C211.151 391.697 212.575 390.81 214.519 390.597C221.479 389.724 228.245 389.902 234.818 391.129Z" fill="#1E5D17"/>
<path fill-rule="evenodd" clip-rule="evenodd" d="M216.656 392.193C222.505 391.141 228.56 390.786 234.818 391.129C238.379 391.839 241.941 392.548 245.502 393.258C245.502 393.612 245.502 393.968 245.502 394.322C235.999 392.554 226.383 391.844 216.656 392.193Z" fill="#51AF24"/>
<path fill-rule="evenodd" clip-rule="evenodd" d="M589.513 390.064C600.188 388.816 604.996 393.428 603.936 403.902C599.36 411.9 593.307 413.319 585.774 408.16C581.352 400.813 582.598 394.781 589.513 390.064Z" fill="#F5F6F6"/>
<path fill-rule="evenodd" clip-rule="evenodd" d="M98.0681 393.258C98.0681 392.903 98.0681 392.548 98.0681 392.193C119.08 392.193 140.09 392.193 161.101 392.193C161.444 397.723 161.087 403.045 160.033 408.16C160.033 403.192 160.033 398.226 160.033 393.258C139.378 393.258 118.723 393.258 98.0681 393.258Z" fill="#2B791C"/>
<path fill-rule="evenodd" clip-rule="evenodd" d="M457.037 390.064C466.485 389.375 471.293 393.632 471.46 402.838C469.039 409.809 464.231 412.47 457.037 410.821C451.134 407.714 449.176 402.924 451.161 396.451C452.614 393.766 454.572 391.637 457.037 390.064Z" fill="#F4F5F6"/>
<path fill-rule="evenodd" clip-rule="evenodd" d="M547.847 501.832C548.189 498.215 547.833 494.666 546.779 491.188C546.131 491.319 545.775 491.674 545.711 492.252C535.437 503.769 522.974 506.785 508.318 501.3C494.146 492.758 487.38 480.162 488.019 463.512C487.829 446.671 494.951 434.075 509.386 425.724C524.216 420.234 536.502 423.605 546.245 435.836C546.779 420.583 546.957 405.326 546.779 390.064C552.121 390.064 557.463 390.064 562.804 390.064C562.804 427.32 562.804 464.576 562.804 501.832C557.818 501.832 552.833 501.832 547.847 501.832Z" fill="#F7F7F8"/>
<path fill-rule="evenodd" clip-rule="evenodd" d="M115.162 408.16C114.813 418.997 115.168 429.642 116.23 440.094C128.86 441.153 141.681 441.507 154.691 441.158C154.691 445.416 154.691 449.674 154.691 453.932C141.325 453.581 128.148 453.937 115.162 454.996C115.162 465.641 115.162 476.285 115.162 486.93C130.287 487.99 145.599 488.344 161.101 487.994C161.101 492.252 161.101 496.51 161.101 500.768C140.447 500.768 119.791 500.768 99.1365 500.768C99.1365 465.286 99.1365 429.804 99.1365 394.322C119.08 394.322 139.022 394.322 158.965 394.322C158.965 398.58 158.965 402.838 158.965 407.096C144.174 406.745 129.574 407.1 115.162 408.16Z" fill="#53C40C"/>
<path fill-rule="evenodd" clip-rule="evenodd" d="M199.562 396.451C196.598 399.756 193.037 402.24 188.879 403.902C189.06 402.495 188.705 401.253 187.81 400.177C192.156 400.055 196.074 398.814 199.562 396.451Z" fill="#14421A"/>
<path fill-rule="evenodd" clip-rule="evenodd" d="M251.912 396.451C252.967 401.922 253.323 407.6 252.98 413.482C250.787 413.587 249.006 412.877 247.638 411.354C249.063 411.354 250.488 411.354 251.912 411.354C251.912 406.386 251.912 401.419 251.912 396.451Z" fill="#4CA529"/>
<path fill-rule="evenodd" clip-rule="evenodd" d="M245.502 394.322C245.502 393.968 245.502 393.612 245.502 393.258C248.563 392.784 251.233 393.494 253.514 395.387C254.388 401.613 254.211 407.644 252.98 413.483C253.323 407.6 252.967 401.923 251.912 396.451C249.992 395.142 247.855 394.433 245.502 394.322Z" fill="#0B3F0F"/>
<path fill-rule="evenodd" clip-rule="evenodd" d="M414.302 425.191C420.868 426.245 427.633 426.6 434.601 426.256C434.601 430.159 434.601 434.061 434.601 437.965C428.036 439.019 421.27 439.373 414.302 439.029C413.823 454.364 414.357 469.621 415.905 484.801C416.795 487.107 418.398 488.704 420.713 489.591C425.874 490.419 430.859 489.887 435.67 487.994C435.67 492.606 435.67 497.22 435.67 501.832C428.296 503.694 420.817 504.226 413.234 503.429C405.368 500.56 400.56 495.06 398.811 486.93C398.277 470.967 398.099 455 398.277 439.029C393.861 437.981 389.23 437.626 384.388 437.965C384.388 434.061 384.388 430.159 384.388 426.256C389.23 426.594 393.861 426.24 398.277 425.191C399.336 418.295 399.692 411.198 399.345 403.902C403.975 403.902 408.605 403.902 413.234 403.902C412.888 411.198 413.244 418.295 414.302 425.191Z" fill="#F8F9F9"/>
<path fill-rule="evenodd" clip-rule="evenodd" d="M115.162 408.16C130.119 408.16 145.076 408.16 160.033 408.16C160.033 408.515 160.033 408.87 160.033 409.225C145.432 409.225 130.832 409.225 116.23 409.225C116.23 419.159 116.23 429.095 116.23 439.029C129.406 439.029 142.583 439.029 155.76 439.029C155.76 439.384 155.76 439.739 155.76 440.094C142.583 440.094 129.406 440.094 116.23 440.094C115.168 429.642 114.813 418.997 115.162 408.16Z" fill="#327919"/>
<path fill-rule="evenodd" clip-rule="evenodd" d="M216.656 392.193C226.383 391.844 235.999 392.554 245.502 394.322C247.855 394.433 249.992 395.142 251.912 396.451C251.912 401.419 251.912 406.386 251.912 411.353C250.488 411.353 249.063 411.353 247.638 411.353C244.848 410.426 241.999 409.717 239.092 409.225C235.295 407.645 231.199 406.935 226.805 407.096C222.74 406.887 219.001 407.596 215.588 409.225C206.039 411.283 198.916 416.605 194.22 425.191C191.55 428.555 190.125 432.458 189.947 436.9C188.981 437.655 188.625 438.719 188.879 440.094C188.169 442.731 187.814 445.57 187.81 448.609C187.59 452.834 188.303 456.736 189.947 460.318C190.711 465.316 192.848 469.574 196.357 473.092C196.713 474.156 197.426 474.866 198.494 475.221C203.45 481.962 210.216 486.042 218.793 487.462C224.49 488.172 230.189 488.172 235.886 487.462C236.865 487.166 237.577 486.634 238.023 485.865C242.769 485.618 247.042 484.199 250.844 481.607C252.245 483.995 252.957 486.834 252.98 490.123C252.977 493.162 252.621 496.001 251.912 498.639C248.817 499.308 245.968 500.373 243.365 501.832C232.771 504.198 222.088 504.554 211.314 502.896C190.424 496.451 177.425 482.613 172.319 461.383C170.957 452.924 170.423 444.408 170.717 435.836C172.291 432.083 173.715 428.179 174.99 424.127C178.828 416.831 183.457 410.09 188.879 403.902C193.037 402.24 196.598 399.756 199.562 396.451C202.985 394.96 206.546 393.895 210.246 393.258C212.313 392.566 214.45 392.211 216.656 392.193Z" fill="#53C310"/>
<path fill-rule="evenodd" clip-rule="evenodd" d="M239.092 409.225C231.239 408.086 223.405 408.086 215.588 409.225C219.001 407.596 222.74 406.887 226.805 407.096C231.199 406.935 235.295 407.645 239.092 409.225Z" fill="#0F490C"/>
<path fill-rule="evenodd" clip-rule="evenodd" d="M98.0681 393.258C118.723 393.258 139.378 393.258 160.033 393.258C160.033 398.226 160.033 403.192 160.033 408.16C145.076 408.16 130.119 408.16 115.162 408.16C129.574 407.1 144.174 406.745 158.965 407.096C158.965 402.838 158.965 398.58 158.965 394.322C139.022 394.322 119.08 394.322 99.1365 394.322C99.1365 429.804 99.1365 465.286 99.1365 500.768C119.791 500.768 140.447 500.768 161.101 500.768C161.101 496.51 161.101 492.252 161.101 487.994C145.599 488.344 130.287 487.99 115.162 486.93C130.831 486.93 146.5 486.93 162.17 486.93C162.17 491.897 162.17 496.864 162.17 501.832C140.802 501.832 119.435 501.832 98.0681 501.832C98.0681 465.641 98.0681 429.449 98.0681 393.258Z" fill="#5BBD24"/>
<path fill-rule="evenodd" clip-rule="evenodd" d="M414.302 425.191C413.244 418.295 412.888 411.198 413.234 403.902C408.605 403.902 403.975 403.902 399.345 403.902C399.692 411.198 399.336 418.295 398.277 425.191C398.277 417.74 398.277 410.289 398.277 402.838C403.619 402.838 408.961 402.838 414.302 402.838C414.302 410.289 414.302 417.74 414.302 425.191Z" fill="#BDC8C6"/>
<path fill-rule="evenodd" clip-rule="evenodd" d="M160.033 409.225C145.978 410.285 131.732 410.639 117.299 410.289C117.299 419.515 117.299 428.739 117.299 437.965C130.309 437.616 143.129 437.97 155.76 439.029C142.583 439.029 129.406 439.029 116.23 439.029C116.23 429.095 116.23 419.159 116.23 409.225C130.831 409.225 145.432 409.225 160.033 409.225Z" fill="#0A3616"/>
<path fill-rule="evenodd" clip-rule="evenodd" d="M741.22 423.063C758.947 421.062 770.164 428.514 774.874 445.416C775.408 464.219 775.586 483.023 775.408 501.832C770.066 501.832 764.724 501.832 759.383 501.832C759.561 484.442 759.383 467.056 758.848 449.674C755.514 438.871 748.214 434.79 736.947 437.433C730.227 440.582 725.776 445.728 723.593 452.867C723.058 469.185 722.88 485.507 723.058 501.832C717.717 501.832 712.375 501.832 707.033 501.832C707.033 476.285 707.033 450.738 707.033 425.191C712.019 425.191 717.004 425.191 721.99 425.191C721.645 429.158 722.002 433.061 723.058 436.9C727.837 430.459 733.892 425.847 741.22 423.063Z" fill="#F8F8F9"/>
<path fill-rule="evenodd" clip-rule="evenodd" d="M414.302 425.191C421.425 425.191 428.547 425.191 435.67 425.191C436.008 429.664 435.652 433.922 434.601 437.965C434.601 434.061 434.601 430.159 434.601 426.256C427.633 426.6 420.868 426.245 414.302 425.191Z" fill="#899792"/>
<path fill-rule="evenodd" clip-rule="evenodd" d="M671.777 498.639C671.951 496.13 671.774 493.646 671.243 491.188C670.477 491.767 669.943 492.477 669.64 493.316C659.121 504.272 646.658 506.933 632.248 501.3C619.621 492.315 616.594 480.784 623.167 466.705C627.576 460.693 633.452 456.967 640.795 455.528C650.366 454.233 659.981 453.701 669.64 453.932C670.966 445.745 667.761 440.246 660.025 437.433C648.654 435.24 638.327 437.545 629.043 444.352C627.802 439.78 627.624 435.166 628.509 430.514C632.886 427.535 637.693 425.584 642.931 424.659C650.41 423.949 657.888 423.949 665.367 424.659C676.229 426.966 682.816 433.529 685.132 444.352C685.666 463.509 685.844 482.669 685.666 501.832C681.037 501.832 676.406 501.832 671.777 501.832C671.777 500.768 671.777 499.703 671.777 498.639Z" fill="#F7F8F8"/>
<path fill-rule="evenodd" clip-rule="evenodd" d="M823.484 423.062C857.616 423.296 872.751 440.327 868.889 474.156C861.368 496.989 845.521 506.746 821.347 503.429C798.632 495.265 788.838 479.121 791.967 454.996C796.257 438.127 806.762 427.482 823.484 423.062Z" fill="#F7F7F8"/>
<path fill-rule="evenodd" clip-rule="evenodd" d="M174.99 424.127C173.715 428.179 172.291 432.083 170.717 435.836C170.969 432.202 171.68 428.654 172.853 425.191C173.583 424.805 174.296 424.451 174.99 424.127Z" fill="#0C3A15"/>
<path fill-rule="evenodd" clip-rule="evenodd" d="M468.789 426.256C468.789 451.448 468.789 476.64 468.789 501.832C463.803 501.832 458.818 501.832 453.832 501.832C453.832 476.64 453.832 451.448 453.832 426.256C458.818 426.256 463.803 426.256 468.789 426.256Z" fill="#FBFBFB"/>
<path fill-rule="evenodd" clip-rule="evenodd" d="M194.22 425.191C193.66 429.484 192.235 433.388 189.947 436.9C190.125 432.458 191.55 428.555 194.22 425.191Z" fill="#144614"/>
<path fill-rule="evenodd" clip-rule="evenodd" d="M98.0681 393.258C98.0681 429.449 98.0681 465.641 98.0681 501.832C119.435 501.832 140.802 501.832 162.17 501.832C140.988 502.893 119.621 503.248 98.0681 502.896C96.644 466.351 96.644 429.804 98.0681 393.258Z" fill="#1E6713"/>
<path fill-rule="evenodd" clip-rule="evenodd" d="M398.277 425.191C393.861 426.24 389.23 426.594 384.388 426.256C384.388 430.159 384.388 434.061 384.388 437.965C389.23 437.626 393.861 437.981 398.277 439.029C393.291 439.029 388.306 439.029 383.32 439.029C383.32 434.417 383.32 429.804 383.32 425.191C388.306 425.191 393.291 425.191 398.277 425.191Z" fill="#93A09E"/>
<path fill-rule="evenodd" clip-rule="evenodd" d="M519.002 436.9C533.66 434.873 542.741 440.905 546.245 454.996C549.037 466.981 546.366 477.448 538.232 486.398C520.726 493.91 509.508 488.41 504.579 469.898C502.078 455.503 506.885 444.504 519.002 436.9Z" fill="#143029"/>
<path fill-rule="evenodd" clip-rule="evenodd" d="M155.76 440.094C156.469 442.553 156.825 445.214 156.828 448.077C156.801 451.195 156.09 453.856 154.691 456.061C154.691 455.706 154.691 455.351 154.691 454.996C155.745 450.238 156.1 445.27 155.76 440.094Z" fill="#0A3911"/>
<path fill-rule="evenodd" clip-rule="evenodd" d="M823.484 436.9C845.6 436.056 855.394 446.701 852.864 468.834C850.089 485.565 840.296 492.484 823.484 489.591C812.247 484.058 807.261 475.01 808.527 462.447C808.563 451.017 813.549 442.502 823.484 436.9Z" fill="#143029"/>
<path fill-rule="evenodd" clip-rule="evenodd" d="M188.879 440.094C188.668 446.528 189.025 452.915 189.947 459.254C189.947 459.608 189.947 459.964 189.947 460.318C188.303 456.736 187.59 452.834 187.81 448.609C187.814 445.57 188.169 442.731 188.879 440.094Z" fill="#408A22"/>
<path fill-rule="evenodd" clip-rule="evenodd" d="M116.23 440.094C129.406 440.094 142.583 440.094 155.76 440.094C156.1 445.27 155.745 450.238 154.691 454.996C141.515 454.996 128.338 454.996 115.162 454.996C128.148 453.937 141.325 453.581 154.691 453.932C154.691 449.674 154.691 445.416 154.691 441.158C141.681 441.507 128.86 441.153 116.23 440.094Z" fill="#5CB62A"/>
<path fill-rule="evenodd" clip-rule="evenodd" d="M600.197 501.832C600.197 476.64 600.197 451.448 600.197 426.256C595.568 426.256 590.938 426.256 586.308 426.256C586.308 451.448 586.308 476.64 586.308 501.832C585.242 476.468 584.886 450.921 585.24 425.191C590.582 425.191 595.924 425.191 601.265 425.191C601.619 450.921 601.263 476.468 600.197 501.832Z" fill="#D0DAD9"/>
<path fill-rule="evenodd" clip-rule="evenodd" d="M600.197 501.832C595.568 501.832 590.938 501.832 586.308 501.832C586.308 476.64 586.308 451.448 586.308 426.256C590.938 426.256 595.568 426.256 600.197 426.256C600.197 451.448 600.197 476.64 600.197 501.832Z" fill="#FCFCFD"/>
<path fill-rule="evenodd" clip-rule="evenodd" d="M649.342 465.641C656.464 465.641 663.586 465.641 670.709 465.641C670.593 487.5 660.266 494.951 639.726 487.994C634.761 483.14 634.227 477.818 638.124 472.027C641.403 468.891 645.142 466.763 649.342 465.641Z" fill="#17322C"/>
<path fill-rule="evenodd" clip-rule="evenodd" d="M189.947 459.254C191.985 463.813 194.122 468.425 196.357 473.092C192.848 469.574 190.711 465.316 189.947 460.318C189.947 459.964 189.947 459.608 189.947 459.254Z" fill="#114B11"/>
<path fill-rule="evenodd" clip-rule="evenodd" d="M238.023 485.865C237.577 486.634 236.865 487.166 235.886 487.462C230.189 488.172 224.49 488.172 218.793 487.462C210.216 486.042 203.45 481.962 198.494 475.221C200.734 477.427 203.405 479.202 206.507 480.543C207.041 480.189 207.575 479.833 208.109 479.479C207.204 478.047 205.959 476.982 204.37 476.285C203.657 474.866 203.657 473.446 204.37 472.027C206.007 474.222 208.143 475.642 210.78 476.285C213.076 478.652 212.542 480.249 209.177 481.075C212.184 483.732 215.745 485.152 219.861 485.333C225.905 485.864 231.959 486.042 238.023 485.865Z" fill="#10391D"/>
<path fill-rule="evenodd" clip-rule="evenodd" d="M468.789 426.256C463.803 426.256 458.818 426.256 453.832 426.256C453.832 451.448 453.832 476.64 453.832 501.832C452.766 476.468 452.41 450.921 452.763 425.191C458.314 424.85 463.655 425.205 468.789 426.256Z" fill="#D4DDDB"/>
<path fill-rule="evenodd" clip-rule="evenodd" d="M250.844 481.607C247.042 484.199 242.769 485.618 238.023 485.865C238.142 485.208 238.498 484.676 239.092 484.269C243.052 483.484 246.969 482.596 250.844 481.607Z" fill="#103F10"/>
<path fill-rule="evenodd" clip-rule="evenodd" d="M115.162 454.996C128.338 454.996 141.515 454.996 154.691 454.996C154.691 455.351 154.691 455.706 154.691 456.061C141.871 456.061 129.051 456.061 116.23 456.061C116.23 465.995 116.23 475.931 116.23 485.865C131.543 485.865 146.857 485.865 162.17 485.865C162.17 486.22 162.17 486.575 162.17 486.93C146.5 486.93 130.831 486.93 115.162 486.93C115.162 476.285 115.162 465.641 115.162 454.996Z" fill="#276E16"/>
<path fill-rule="evenodd" clip-rule="evenodd" d="M671.777 498.639C671.065 496.864 670.353 495.091 669.64 493.316C669.943 492.477 670.477 491.767 671.243 491.188C671.774 493.646 671.951 496.13 671.777 498.639Z" fill="#687976"/>
<path fill-rule="evenodd" clip-rule="evenodd" d="M545.711 492.252C545.775 491.674 546.131 491.319 546.779 491.188C547.834 494.666 548.189 498.215 547.847 501.832C547.135 498.639 546.423 495.445 545.711 492.252Z" fill="#7A8C8B"/>
<path fill-rule="evenodd" clip-rule="evenodd" d="M251.912 498.639C249.65 500.933 246.801 501.997 243.365 501.832C245.968 500.373 248.817 499.308 251.912 498.639Z" fill="#125307"/>
<path fill-rule="evenodd" clip-rule="evenodd" d="M162.17 485.865C163.036 490.48 163.749 495.27 164.306 500.235C164.216 501.414 163.859 502.478 163.238 503.429C141.332 504.311 119.609 504.134 98.0681 502.896C119.621 503.248 140.988 502.893 162.17 501.832C162.17 496.864 162.17 491.897 162.17 486.93C162.17 486.575 162.17 486.22 162.17 485.865Z" fill="#0D341B"/>
<path fill-rule="evenodd" clip-rule="evenodd" d="M243.365 501.832C241.604 503.351 239.468 504.238 236.955 504.493C229.476 505.203 221.998 505.203 214.519 504.493C213.198 504.246 212.129 503.714 211.314 502.896C222.088 504.554 232.771 504.198 243.365 501.832Z" fill="#0B3B0D"/>
</svg>
